<svg width="436" height="346" viewBox="0 0 436 346" fill="none" xmlns="http://www.w3.org/2000/svg">
<path d="M192.32 103.978C192.32 103.978 158.639 77.7425 124.968 81.3118C91.2984 84.8811 57.2795 130.593 57.2795 130.593L68.1795 139.293C68.1795 139.293 124.674 89.9423 155.27 126.427C185.867 162.912 192.32 103.978 192.32 103.978Z" fill="#FF6768"/>
<path opacity="0.2" d="M192.32 103.978C192.32 103.978 158.639 77.7425 124.968 81.3118C91.2984 84.8811 57.2795 130.593 57.2795 130.593L68.1795 139.293C68.1795 139.293 124.674 89.9423 155.27 126.427C185.867 162.912 192.32 103.978 192.32 103.978Z" fill="white"/>
<path d="M166.879 100.317H51.23V178.991H166.879V100.317Z" fill="#FFD200"/>
<path opacity="0.45" d="M354.054 268.315C351.923 267.862 349.915 266.915 348.175 265.543C346.435 264.171 345.006 262.409 343.993 260.384V260.269L292.382 156.783L263.976 177.958L284.065 244.454C284.594 246.203 284.714 248.06 284.414 249.868C284.114 251.676 283.403 253.38 282.342 254.836C281.281 256.291 279.901 257.455 278.32 258.227C276.739 259 275.004 259.358 273.263 259.271C258.003 258.536 241.773 258.123 224.911 258.123C137.798 258.123 67.1767 268.808 67.1767 281.995C67.1767 295.182 137.798 305.878 224.911 305.878C312.023 305.878 382.59 295.193 382.59 282.029C382.59 276.911 372.028 272.194 354.054 268.315Z" fill="#E6E6E6"/>
<path d="M189.922 274.202C189.922 274.202 191.535 279.941 196.32 280.618C201.105 281.295 202.108 286.356 197.715 287.389C193.322 288.422 182.455 281.938 182.455 281.938L183.142 274.65L189.922 274.202Z" fill="#FF6768"/>
<path d="M96.7593 273.227C96.7593 273.227 91.2221 274.489 90.2193 279.459C89.2165 284.428 84.3551 285.094 83.6793 280.4C83.0035 275.706 90.0122 264.814 90.0122 264.814L96.8574 266.111L96.7593 273.227Z" fill="#FF6768"/>
<path d="M97.5005 187.541C97.5005 187.541 92.3993 212.606 110.766 223.349C129.132 234.091 187.066 214.752 178.117 275.637H191.044C191.044 275.637 207.754 225.139 164.405 207.189L151.248 191.478L97.5005 187.541Z" fill="#24285B"/>
<path d="M275.851 169.449L271.454 165.024L243.952 195.326L248.349 199.751L275.851 169.449Z" fill="#FFD200"/>
<path opacity="0.08" d="M275.851 169.449L271.454 165.024L243.952 195.326L248.349 199.751L275.851 169.449Z" fill="black"/>
<path d="M273.709 167.279L269.312 162.855L241.81 193.157L246.207 197.581L273.709 167.279Z" fill="#FFD200"/>
<path d="M285.67 172.855C292.74 165.065 294.471 154.724 289.536 149.758C284.6 144.792 274.868 147.082 267.798 154.872C260.727 162.662 258.996 173.003 263.932 177.969C268.867 182.935 278.6 180.645 285.67 172.855Z" fill="#FFD200"/>
<path opacity="0.08" d="M285.67 172.855C292.74 165.065 294.471 154.724 289.536 149.758C284.6 144.792 274.868 147.082 267.798 154.872C260.727 162.662 258.996 173.003 263.932 177.969C268.867 182.935 278.6 180.645 285.67 172.855Z" fill="black"/>
<path d="M283.523 170.704C290.593 162.913 292.324 152.573 287.388 147.607C282.453 142.641 272.72 144.93 265.65 152.72C258.58 160.511 256.849 170.852 261.784 175.818C266.72 180.783 276.452 178.494 283.523 170.704Z" fill="#FFD200"/>
<path opacity="0.57" d="M280.489 167.651C285.159 162.505 286.303 155.674 283.043 152.394C279.783 149.114 273.355 150.627 268.684 155.773C264.013 160.919 262.87 167.75 266.129 171.03C269.389 174.31 275.818 172.797 280.489 167.651Z" fill="white"/>
<path d="M237.893 106.813C237.893 106.813 232.977 114.331 228.202 118.026C227.739 118.381 227.215 118.637 226.658 118.778C226.101 118.92 225.523 118.944 224.957 118.851C224.391 118.757 223.849 118.547 223.36 118.232C222.871 117.917 222.446 117.504 222.109 117.016C220.376 114.457 218.741 110.463 220.91 106.102L223.723 98.2173C224.452 96.7103 225.606 95.4777 227.026 94.6887C228.447 93.8996 230.065 93.5928 231.658 93.8102C237.62 94.1774 241.097 102.395 237.893 106.813Z" fill="#F4A28C"/>
<path d="M225.445 99.8354L203.263 109.246L205.988 125.865L221.978 112.127L225.445 99.8354Z" fill="#F4A28C"/>
<path d="M236.007 105.666C233.874 103.955 231.935 101.991 230.23 99.8124C230.075 101.288 229.516 102.684 228.619 103.829C227.723 104.975 226.529 105.82 225.183 106.262C223.886 106.712 222.481 106.673 221.208 106.151C219.935 105.63 218.875 104.659 218.207 103.405L225.401 94.4527C226.384 93.128 227.69 92.1084 229.179 91.5022C230.668 90.8959 232.286 90.7257 233.86 91.0097C235.219 91.2563 236.563 91.5936 237.882 92.0196C241.152 93.1673 243.43 98.0105 247.027 98.1712C247.388 98.1898 247.739 98.3069 248.045 98.5111C248.351 98.7153 248.601 98.9996 248.772 99.3362C248.942 99.6728 249.026 100.05 249.017 100.431C249.007 100.812 248.903 101.184 248.716 101.511C246.95 104.598 243.092 108.523 238.372 106.951C237.522 106.662 236.723 106.228 236.007 105.666Z" fill="#24285B"/>
<path d="M226.066 106.676C226.066 106.676 228.137 103.921 226.066 102.441C223.995 100.96 220.954 104.931 223.297 107.582L226.066 106.676Z" fill="#F4A28C"/>
<path d="M234.568 111.381L234.306 115.708C234.284 115.95 234.206 116.183 234.077 116.385C233.948 116.587 233.774 116.752 233.57 116.866C233.366 116.98 233.138 117.039 232.907 117.037C232.676 117.035 232.449 116.973 232.246 116.856L229.292 115.134L234.568 111.381Z" fill="#F4A28C"/>
<path opacity="0.31" d="M220.18 113.653C220.18 113.653 220.845 108.432 222.632 106.446C222.632 106.446 214.556 109.315 214.37 118.669L220.18 113.653Z" fill="#CE8172"/>
<path opacity="0.08" d="M73.7494 176.96C73.7494 176.96 73.4006 122.823 135.16 111.381L98.8739 178.991H73.8039L73.7494 176.96Z" fill="black"/>
<path d="M208.931 131.615L207.1 120.402C206.384 115.829 204.577 111.522 201.849 107.885C199.121 104.248 195.561 101.399 191.502 99.6058C187.969 98.1187 184.275 97.0972 180.504 96.5645C175.664 95.8529 168.885 96.5645 161.298 98.6648C128.62 107.697 104.64 136.848 99.6805 171.99L97.5005 187.541L151.248 191.478C151.248 191.478 148.523 175.41 167.598 175.41C186.673 175.41 210.828 175.617 208.931 131.615Z" fill="#FF6768"/>
<path opacity="0.08" d="M156.262 114.227C156.262 114.227 130.179 119.059 101.512 162.556L97.5005 187.541L138.288 190.732L156.262 114.227Z" fill="black"/>
<path d="M186.172 134.231C191.262 116.351 171.522 101.89 157.451 113.252C145.679 122.743 132.381 139.832 131.857 168.673C130.953 220.721 178.302 211.413 242.383 191.478L240.345 176.317C240.345 176.317 163.609 191.592 174.029 165.334C178.389 154.35 183.469 143.746 186.172 134.231Z" fill="#FF6768"/>
<path opacity="0.2" d="M186.172 134.231C191.262 116.351 171.522 101.89 157.451 113.252C145.679 122.743 132.381 139.832 131.857 168.673C130.953 220.721 178.302 211.413 242.383 191.478L240.345 176.317C240.345 176.317 163.609 191.592 174.029 165.334C178.389 154.35 183.469 143.746 186.172 134.231Z" fill="white"/>
<path d="M159.238 207.316C159.238 207.316 160.819 264.872 96.8574 275.637L94.3831 263.437C94.3831 263.437 145.613 250.067 112.521 214.248L159.238 207.316Z" fill="#24285B"/>
<path opacity="0.08" d="M259.987 284.715C263.827 284.715 266.941 283.502 266.941 282.007C266.941 280.511 263.827 279.298 259.987 279.298C256.146 279.298 253.033 280.511 253.033 282.007C253.033 283.502 256.146 284.715 259.987 284.715Z" fill="black"/>
<path opacity="0.08" d="M286.583 277.703C290.424 277.703 293.537 276.49 293.537 274.994C293.537 273.498 290.424 272.286 286.583 272.286C282.742 272.286 279.629 273.498 279.629 274.994C279.629 276.49 282.742 277.703 286.583 277.703Z" fill="black"/>
<path opacity="0.08" d="M313.364 283.12C317.205 283.12 320.318 281.907 320.318 280.411C320.318 278.916 317.205 277.703 313.364 277.703C309.523 277.703 306.41 278.916 306.41 280.411C306.41 281.907 309.523 283.12 313.364 283.12Z" fill="black"/>
<path opacity="0.08" d="M354.37 285.84C358.211 285.84 361.324 284.627 361.324 283.131C361.324 281.635 358.211 280.423 354.37 280.423C350.529 280.423 347.416 281.635 347.416 283.131C347.416 284.627 350.529 285.84 354.37 285.84Z" fill="black"/>
<path opacity="0.08" d="M233.62 277.095C237.545 277.095 240.727 275.851 240.727 274.317C240.727 272.783 237.545 271.54 233.62 271.54C229.695 271.54 226.513 272.783 226.513 274.317C226.513 275.851 229.695 277.095 233.62 277.095Z" fill="black"/>
<path d="M240.737 179.232C240.737 179.232 258.374 177.269 259.921 184.523C261.469 191.776 258.09 195.621 242.22 190.261L240.737 179.232Z" fill="#F4A28C"/>
<path d="M65.0403 178.991C65.0403 178.991 67.58 189.825 77.7497 187.541C87.9194 185.257 80.66 171.967 65.0403 178.991Z" fill="#F4A28C"/>
</svg>
