<svg width="745" height="617" viewBox="0 0 745 617" fill="none" xmlns="http://www.w3.org/2000/svg">
<path d="M83.9084 64.8421C86.0754 64.8421 87.8322 62.7465 87.8322 60.1615C87.8322 57.5765 86.0754 55.481 83.9084 55.481C81.7413 55.481 79.9846 57.5765 79.9846 60.1615C79.9846 62.7465 81.7413 64.8421 83.9084 64.8421Z" fill="white"/>
<path d="M98.8006 64.8421C100.968 64.8421 102.724 62.7465 102.724 60.1615C102.724 57.5765 100.968 55.481 98.8006 55.481C96.6335 55.481 94.8768 57.5765 94.8768 60.1615C94.8768 62.7465 96.6335 64.8421 98.8006 64.8421Z" fill="white"/>
<path d="M113.693 64.8421C115.86 64.8421 117.617 62.7465 117.617 60.1615C117.617 57.5765 115.86 55.481 113.693 55.481C111.526 55.481 109.769 57.5765 109.769 60.1615C109.769 62.7465 111.526 64.8421 113.693 64.8421Z" fill="white"/>
<path d="M572.644 71.1577H74.3746V74.4612H572.644V71.1577Z" fill="white"/>
<path d="M573.071 0.386963H0.244202V438.006H573.071V0.386963Z" fill="#E6E6E6"/>
<path d="M572.827 0H0V29.0294H572.827V0Z" fill="#FF6768"/>
<path d="M557.165 52.4441H17.0975V219.269H557.165V52.4441Z" fill="white"/>
<path d="M557.507 246.682H17.439V413.507H557.507V246.682Z" fill="white"/>
<path d="M491.755 89.349H199.47V104.888H491.755V89.349Z" fill="#E6E6E6"/>
<path d="M303.683 128.196H199.47V143.736H303.683V128.196Z" fill="#E6E6E6"/>
<path d="M407.083 167.044H199.47V182.583H407.083V167.044Z" fill="#E6E6E6"/>
<path d="M177.487 329.241C177.503 340.554 174.742 351.626 169.545 361.09C168.456 363.086 167.263 364.997 165.972 366.814C162.945 371.091 159.42 374.828 155.503 377.91C154.438 378.752 153.343 379.541 152.218 380.275C146.364 384.138 139.903 386.511 133.242 387.247C131.728 387.423 130.188 387.507 128.635 387.507C124.38 387.512 120.141 386.851 116.03 385.541C113.699 384.81 111.419 383.866 109.21 382.717C108.081 382.135 106.978 381.502 105.9 380.819C103.307 379.195 100.845 377.292 98.5419 375.134C97.4707 374.139 96.4379 373.09 95.4436 371.988C89.4942 365.412 85.0114 357.172 82.3996 348.012C79.7878 338.852 79.1294 329.061 80.4837 319.521C81.8381 309.982 85.1626 300.995 90.1571 293.372C95.1517 285.748 101.659 279.729 109.092 275.856C116.525 271.983 124.649 270.38 132.731 271.19C140.814 272 148.6 275.198 155.387 280.495C162.174 285.793 167.748 293.023 171.607 301.533C175.465 310.044 177.486 319.566 177.487 329.242V329.241Z" fill="#FF6768"/>
<path d="M131.633 302.04H125.644V356.426H131.633V302.04Z" fill="white"/>
<path d="M151.435 325.662H105.842V332.805H151.435V325.662Z" fill="white"/>
<path d="M484.428 283.587H192.143V299.126H484.428V283.587Z" fill="#E6E6E6"/>
<path d="M296.356 322.435H192.143V337.974H296.356V322.435Z" fill="#E6E6E6"/>
<path d="M399.755 361.282H192.143V376.821H399.755V361.282Z" fill="#E6E6E6"/>
<path d="M37.8853 19.2425C40.1086 19.2425 41.9109 17.0926 41.9109 14.4405C41.9109 11.7884 40.1086 9.63843 37.8853 9.63843C35.662 9.63843 33.8597 11.7884 33.8597 14.4405C33.8597 17.0926 35.662 19.2425 37.8853 19.2425Z" fill="white"/>
<path d="M53.166 19.2425C55.3892 19.2425 57.1916 17.0926 57.1916 14.4405C57.1916 11.7884 55.3892 9.63843 53.166 9.63843C50.9427 9.63843 49.1403 11.7884 49.1403 14.4405C49.1403 17.0926 50.9427 19.2425 53.166 19.2425Z" fill="white"/>
<path d="M22.565 19.2425C24.7883 19.2425 26.5906 17.0926 26.5906 14.4405C26.5906 11.7884 24.7883 9.63843 22.565 9.63843C20.3417 9.63843 18.5394 11.7884 18.5394 14.4405C18.5394 17.0926 20.3417 19.2425 22.565 19.2425Z" fill="white"/>
<path d="M157.924 182.72C153.654 180.036 149.197 177.799 144.604 176.033L144.018 168.304L120.263 165.251L117.244 175.13L108.718 178.946C108.413 179.084 108.123 179.265 107.853 179.484H107.844C107.368 179.867 106.963 180.363 106.653 180.939C106.343 181.516 106.135 182.162 106.042 182.838C105.95 183.51 105.972 184.197 106.105 184.859L106.555 187.063C107.204 187.525 107.871 187.966 108.538 188.385L108.962 188.643C109.935 189.245 110.926 189.815 111.945 190.341C112.152 190.449 112.377 190.556 112.584 190.664C112.602 190.675 112.611 190.675 112.629 190.685C113.107 190.922 113.585 191.148 114.071 191.363C115.67 192.091 117.3 192.715 118.956 193.233C123.18 194.576 127.534 195.256 131.906 195.254C133.501 195.254 135.078 195.168 136.637 194.985C140.2 194.593 143.716 193.746 147.127 192.459C147.136 192.459 147.145 192.448 147.154 192.448C149.309 191.63 151.414 190.635 153.454 189.471C153.462 189.46 153.481 189.46 153.49 189.449C153.949 189.191 154.391 188.912 154.842 188.643L155.058 188.514C155.418 188.288 155.779 188.062 156.139 187.826C157.04 187.235 157.924 186.611 158.797 185.945C159.041 185.773 159.275 185.59 159.519 185.396C159.861 185.128 160.203 184.848 160.537 184.558C159.699 183.913 158.825 183.3 157.924 182.72Z" fill="#3F3D56"/>
<path d="M113.341 187.482L111.854 179.473H107.97C107.931 179.474 107.892 179.478 107.853 179.484H107.844C106.448 179.625 105.104 180.179 103.933 181.097C103.139 181.701 102.433 182.457 101.842 183.333C102.996 184.375 104.194 185.343 105.429 186.267L105.483 186.3C105.834 186.558 106.195 186.816 106.556 187.063C107.204 187.525 107.871 187.966 108.538 188.385L108.962 188.643C109.935 189.245 110.926 189.815 111.945 190.342C112.152 190.449 112.377 190.557 112.585 190.664C112.603 190.675 112.611 190.675 112.629 190.686C113.107 190.922 113.585 191.148 114.071 191.363L113.341 187.482Z" fill="#3F3D56"/>
<path d="M131.208 160.364C140.657 160.364 148.317 151.227 148.317 139.956C148.317 128.684 140.657 119.547 131.208 119.547C121.759 119.547 114.099 128.684 114.099 139.956C114.099 151.227 121.759 160.364 131.208 160.364Z" fill="#FFB8B8"/>
<path d="M119.721 130.015C121.492 132.515 124.49 133.221 127.255 133.51C133.719 133.936 140.201 133.305 146.522 131.633C146.914 136.161 145.846 141.044 148.082 144.769C149.13 140.259 149.739 135.621 149.898 130.945C150.065 128.939 149.845 126.914 149.256 125.024C148.941 124.078 148.409 123.255 147.722 122.651C147.035 122.046 146.219 121.684 145.367 121.605C146.642 120.451 148.135 119.69 149.715 119.388L144.282 116.131L145.677 114.423L135.842 113.705L138.691 111.546C134.403 110.843 130.066 110.68 125.75 111.059C123.746 111.235 121.65 111.571 120.027 112.957C118.403 114.342 117.464 117.095 118.472 119.129C117.21 119.376 116.022 120.003 115.02 120.952C114.018 121.9 113.236 123.138 112.747 124.548C112.129 126.789 111.98 129.176 112.312 131.501C112.683 135.233 113.41 138.901 114.479 142.435L119.721 130.015Z" fill="#2F2E41"/>
<path d="M179.318 117.832C176.917 109.606 173.041 102.104 167.961 95.8482C162.88 89.5925 156.716 84.7341 149.899 81.612C143.082 78.4898 135.777 77.179 128.492 77.7709C121.207 78.3628 114.118 80.8432 107.719 85.039C101.32 89.2349 95.7652 95.0453 91.4423 102.065C87.1194 109.085 84.1321 117.145 82.6889 125.683C81.2457 134.222 81.3812 143.033 83.086 151.502C84.7908 159.972 88.0239 167.896 92.5598 174.722C93.0104 175.399 93.479 176.076 93.9569 176.732C93.993 176.775 94.0198 176.818 94.0559 176.861C95.2306 178.476 96.4791 180.012 97.7958 181.462C98.1386 181.838 98.4989 182.225 98.8593 182.591C99.544 183.322 100.247 184.02 100.977 184.687C101.265 184.956 101.545 185.224 101.842 185.482C102.996 186.525 104.194 187.493 105.429 188.417L105.483 188.45C105.834 188.708 106.195 188.966 106.556 189.213C107.204 189.675 107.871 190.116 108.538 190.535L108.962 190.793C109.935 191.395 110.926 191.965 111.945 192.492C112.152 192.599 112.377 192.707 112.585 192.814C112.603 192.825 112.611 192.825 112.629 192.836C113.107 193.072 113.585 193.298 114.071 193.513C115.67 194.241 117.301 194.865 118.956 195.383C123.181 196.726 127.534 197.406 131.906 197.404C133.501 197.404 135.078 197.318 136.637 197.136C140.2 196.743 143.717 195.896 147.127 194.609C147.136 194.609 147.145 194.599 147.154 194.599C149.309 193.78 151.414 192.785 153.454 191.621C153.463 191.61 153.481 191.61 153.49 191.599C153.949 191.341 154.391 191.062 154.842 190.793L155.058 190.664C155.418 190.438 155.779 190.213 156.139 189.976C157.041 189.385 157.924 188.761 158.798 188.095C159.041 187.923 159.275 187.74 159.519 187.547C159.861 187.278 160.204 186.998 160.537 186.708C160.978 186.342 161.42 185.966 161.853 185.579C161.988 185.461 162.132 185.343 162.267 185.214C170.71 177.569 176.908 166.932 179.971 154.828C183.034 142.723 182.805 129.773 179.318 117.832H179.318ZM160.609 182.601C160.312 182.881 160.005 183.15 159.699 183.397C159.401 183.666 159.104 183.924 158.798 184.16C158.536 184.386 158.275 184.601 158.005 184.805L157.924 184.87C157.725 185.031 157.527 185.181 157.329 185.332C156.581 185.891 155.824 186.428 155.058 186.944C154.977 186.998 154.895 187.052 154.814 187.106C154.472 187.332 154.13 187.547 153.787 187.762C153.742 187.794 153.688 187.815 153.643 187.848L153.589 187.88C153.156 188.149 152.715 188.407 152.273 188.654C150.569 189.633 148.814 190.48 147.019 191.191C146.785 191.288 146.55 191.384 146.316 191.47C143.088 192.695 139.758 193.503 136.385 193.878C134.907 194.04 133.411 194.126 131.906 194.126C127.771 194.136 123.653 193.492 119.659 192.212C117.609 191.574 115.601 190.762 113.648 189.783C113.549 189.729 113.44 189.686 113.341 189.632C113.234 189.578 113.134 189.535 113.035 189.482C112.927 189.428 112.828 189.374 112.72 189.31C111.873 188.869 111.034 188.385 110.214 187.88L109.818 187.633C108.817 187.009 107.835 186.343 106.88 185.633C106.6 185.429 106.312 185.214 106.042 184.988C105.97 184.934 105.907 184.88 105.834 184.827C105.194 184.321 104.555 183.795 103.933 183.246C103.51 182.87 103.086 182.494 102.671 182.107C101.977 181.483 101.31 180.817 100.662 180.129C100.319 179.785 99.9858 179.409 99.6615 179.054C98.3837 177.647 97.1741 176.153 96.0387 174.582C95.6603 174.066 95.2906 173.55 94.939 173.012C94.8591 172.906 94.7839 172.795 94.7137 172.679C88.8584 163.865 85.3365 153.171 84.5971 141.96C83.8578 130.749 85.9345 119.529 90.5624 109.731C95.1903 99.9337 102.16 92.0024 110.582 86.949C119.004 81.8955 128.497 79.9488 137.85 81.3572C147.204 82.7656 155.993 87.4652 163.098 94.8567C170.204 102.248 175.302 111.997 177.744 122.859C180.185 133.721 179.86 145.204 176.808 155.845C173.756 166.485 168.117 175.8 160.609 182.601Z" fill="#3F3D56"/>
<path d="M606.565 405.246C604.165 397.02 600.289 389.517 595.208 383.261C590.127 377.006 583.963 372.147 577.146 369.025C570.33 365.903 563.024 364.592 555.739 365.184C548.454 365.776 541.365 368.256 534.966 372.452C528.567 376.648 523.013 382.459 518.69 389.478C514.367 396.498 511.379 404.558 509.936 413.096C508.493 421.635 508.628 430.446 510.333 438.915C512.038 447.385 515.271 455.309 519.807 462.135C520.258 462.812 520.726 463.489 521.204 464.145C521.24 464.188 521.267 464.231 521.303 464.274C522.478 465.889 523.726 467.425 525.043 468.875C525.385 469.251 525.746 469.638 526.106 470.004C526.791 470.735 527.494 471.434 528.224 472.1C529.649 473.44 531.136 474.686 532.676 475.83L532.73 475.863C533.73 476.604 534.748 477.292 535.785 477.948L536.209 478.206C537.182 478.808 538.173 479.378 539.192 479.905C539.399 480.012 539.624 480.12 539.831 480.227C539.849 480.238 539.859 480.238 539.877 480.249C541.934 481.269 544.048 482.121 546.203 482.796C550.428 484.14 554.781 484.819 559.153 484.817C560.748 484.817 562.325 484.731 563.884 484.549C567.447 484.156 570.963 483.31 574.374 482.022C574.383 482.022 574.392 482.012 574.401 482.012C576.556 481.193 578.661 480.198 580.701 479.034C580.709 479.023 580.728 479.023 580.737 479.012C581.196 478.754 581.638 478.475 582.088 478.206L582.305 478.077C582.665 477.851 583.026 477.626 583.386 477.389C584.287 476.798 585.17 476.174 586.045 475.508C586.288 475.336 586.522 475.153 586.766 474.96C587.559 474.336 588.343 473.67 589.1 472.992C589.235 472.874 589.379 472.756 589.514 472.627C597.957 464.982 604.154 454.345 607.217 442.241C610.28 430.136 610.052 417.186 606.565 405.246Z" fill="white"/>
<path d="M575.72 449.616C579.876 449.616 583.245 445.597 583.245 440.64C583.245 435.684 579.876 431.665 575.72 431.665C571.565 431.665 568.196 435.684 568.196 440.64C568.196 445.597 571.565 449.616 575.72 449.616Z" fill="#2F2E41"/>
<path d="M577.817 431.913C579.119 431.913 580.399 432.316 581.531 433.083C582.664 433.85 583.61 434.954 584.278 436.288C584.945 437.622 585.311 439.139 585.34 440.692C585.368 442.245 585.058 443.781 584.441 445.148C585.093 444.175 585.568 443.05 585.835 441.845C586.103 440.64 586.157 439.382 585.995 438.151C585.832 436.92 585.457 435.743 584.892 434.695C584.327 433.646 583.585 432.75 582.714 432.063C581.842 431.375 580.86 430.912 579.83 430.702C578.801 430.492 577.745 430.54 576.732 430.844C575.719 431.147 574.77 431.699 573.945 432.464C573.121 433.23 572.439 434.191 571.943 435.288C572.646 434.235 573.54 433.384 574.557 432.8C575.574 432.215 576.689 431.912 577.818 431.913H577.817Z" fill="#2F2E41"/>
<path d="M561.66 440.621C573.867 440.621 583.763 428.817 583.763 414.256C583.763 399.694 573.867 387.89 561.66 387.89C549.453 387.89 539.557 399.694 539.557 414.256C539.557 428.817 549.453 440.621 561.66 440.621Z" fill="#2F2E41"/>
<path d="M544.313 397.897C548.121 392.788 553.445 389.644 559.16 389.128C564.875 388.612 570.535 390.765 574.945 395.132C574.764 394.927 574.584 394.721 574.397 394.522C570.031 389.856 564.29 387.45 558.437 387.834C552.584 388.217 547.098 391.359 543.187 396.567C539.275 401.775 537.258 408.624 537.58 415.606C537.901 422.588 540.535 429.132 544.901 433.798C544.943 433.842 544.985 433.887 545.027 433.931C545.215 434.13 545.408 434.318 545.6 434.509C541.447 429.796 538.992 423.344 538.752 416.513C538.512 409.682 540.506 403.007 544.314 397.897H544.313Z" fill="#2F2E41"/>
<path d="M561.473 440.398C569.334 440.398 575.708 432.795 575.708 423.417C575.708 414.039 569.334 406.436 561.473 406.436C553.611 406.436 547.237 414.039 547.237 423.417C547.237 432.795 553.611 440.398 561.473 440.398Z" fill="#A0616A"/>
<path d="M586.946 467.66V473.358C586.072 474.024 585.189 474.648 584.287 475.239C583.927 475.476 583.567 475.701 583.206 475.927L582.99 476.056C582.539 476.325 582.097 476.604 581.638 476.862C581.629 476.873 581.611 476.873 581.602 476.884C579.562 478.048 577.457 479.043 575.302 479.862C575.294 479.862 575.285 479.872 575.275 479.872C571.865 481.16 568.348 482.006 564.785 482.399C563.226 482.582 561.649 482.667 560.054 482.667C555.682 482.669 551.329 481.99 547.104 480.647C544.949 479.971 542.835 479.119 540.778 478.099C540.76 478.088 540.751 478.088 540.733 478.077C540.525 477.97 540.3 477.862 540.093 477.755C539.075 477.228 538.083 476.658 537.11 476.056L536.686 475.798C535.65 475.142 534.631 474.454 533.631 473.713L533.577 473.68C532.037 472.536 530.551 471.29 529.125 469.95C528.395 469.284 527.693 468.585 527.007 467.854C526.647 467.488 526.287 467.101 525.944 466.725C524.628 465.275 523.379 463.739 522.204 462.124C522.36 461.004 522.589 459.901 522.889 458.824L522.898 458.813C522.952 458.63 523.015 458.45 523.087 458.276C523.137 458.121 523.194 457.971 523.258 457.824C524.871 454.223 527.792 453.331 531.414 453.137C533.46 453.03 535.722 453.148 538.11 453.116C539.372 453.105 540.679 453.051 541.985 452.911C550.231 452.019 548.736 446.214 549.105 443.086C549.474 440.054 551.763 442.677 551.917 442.849L551.925 442.86C556.592 445.465 561.754 446.545 566.885 445.988C567.768 445.859 568.652 445.784 569.535 445.752C571.86 445.72 571.355 446.515 570.553 447.171C570.164 447.476 569.758 447.749 569.337 447.988C569.337 447.988 568.967 450.675 568.589 454.696C568.228 458.544 574.41 460.35 574.924 460.49C574.934 460.499 574.947 460.502 574.96 460.501C577.218 459.802 579.595 459.877 581.818 460.716H581.827C583.098 461.273 584.232 462.2 585.125 463.413C586.019 464.626 586.645 466.086 586.946 467.66Z" fill="#FF6768"/>
<path d="M540.868 474.573C540.868 475.368 540.85 476.131 540.823 476.852C540.814 477.282 540.796 477.701 540.778 478.099C540.76 478.088 540.751 478.088 540.733 478.077C540.525 477.97 540.3 477.862 540.093 477.755C539.074 477.228 538.083 476.658 537.11 476.056L536.686 475.798C535.65 475.142 534.631 474.454 533.631 473.713C533.658 473.336 533.703 472.96 533.748 472.584C533.847 471.756 533.929 470.918 533.983 470.09C534.337 464.275 533.454 458.447 531.414 453.148V453.137C531.234 452.707 531.126 452.471 531.126 452.471C531.126 452.471 533.748 449.783 537.488 452.471C537.727 452.638 537.938 452.857 538.11 453.116C540.363 456.287 540.976 466.951 540.868 474.573Z" fill="#2F2E41"/>
<path d="M581.791 473.111C581.755 474.315 581.701 475.572 581.638 476.852V476.862C581.629 476.873 581.611 476.873 581.602 476.884C579.562 478.048 577.457 479.043 575.302 479.862C575.293 479.862 575.285 479.872 575.275 479.872L575.176 476.852L575.167 476.454L574.69 461.748C574.677 461.415 574.721 461.082 574.819 460.77C574.917 460.458 575.067 460.173 575.259 459.932C575.452 459.691 575.684 459.499 575.941 459.367C576.198 459.236 576.474 459.168 576.753 459.168H581.322C581.548 459.168 581.71 459.716 581.818 460.705V460.716C582.04 464.843 582.031 468.984 581.791 473.111Z" fill="#2F2E41"/>
<path d="M549.297 402.191V419.176H552.594L556.789 413.814L556.228 419.176H570.8L569.899 413.814L571.701 419.176H574.024V402.191H549.297Z" fill="#2F2E41"/>
<path d="M547.05 422.3C547.671 422.3 548.174 421.2 548.174 419.842C548.174 418.485 547.671 417.385 547.05 417.385C546.429 417.385 545.926 418.485 545.926 419.842C545.926 421.2 546.429 422.3 547.05 422.3Z" fill="#A0616A"/>
<path d="M575.896 422.3C576.517 422.3 577.02 421.2 577.02 419.842C577.02 418.485 576.517 417.385 575.896 417.385C575.275 417.385 574.772 418.485 574.772 419.842C574.772 421.2 575.275 422.3 575.896 422.3Z" fill="#A0616A"/>
<path d="M590.001 470.842C589.244 471.52 588.46 472.186 587.667 472.81C587.424 473.003 587.19 473.186 586.946 473.358C586.072 474.024 585.189 474.648 584.287 475.239C583.927 475.476 583.567 475.701 583.206 475.927V464.081C583.206 464.081 584.648 465.457 586.946 467.746C587.234 468.037 587.532 468.338 587.847 468.66C588.514 469.327 589.235 470.058 590.001 470.842Z" fill="#FF6768"/>
<path d="M606.565 405.246C604.165 397.02 600.289 389.517 595.208 383.261C590.127 377.006 583.963 372.147 577.146 369.025C570.33 365.903 563.024 364.592 555.739 365.184C548.454 365.776 541.365 368.256 534.966 372.452C528.567 376.648 523.013 382.459 518.69 389.478C514.367 396.498 511.379 404.558 509.936 413.096C508.493 421.635 508.628 430.446 510.333 438.915C512.038 447.385 515.271 455.309 519.807 462.135C520.258 462.812 520.726 463.489 521.204 464.145C521.24 464.188 521.267 464.231 521.303 464.274C522.478 465.889 523.726 467.425 525.043 468.875C525.385 469.251 525.746 469.638 526.106 470.004C526.791 470.735 527.494 471.434 528.224 472.1C529.649 473.44 531.136 474.686 532.676 475.83L532.73 475.863C533.73 476.604 534.748 477.292 535.785 477.948L536.209 478.206C537.182 478.808 538.173 479.378 539.192 479.905C539.399 480.012 539.624 480.12 539.831 480.227C539.849 480.238 539.859 480.238 539.877 480.249C541.934 481.269 544.048 482.121 546.203 482.796C550.428 484.14 554.781 484.819 559.153 484.817C560.748 484.817 562.325 484.731 563.884 484.549C567.447 484.156 570.963 483.31 574.374 482.022C574.383 482.022 574.392 482.012 574.401 482.012C576.556 481.193 578.661 480.198 580.701 479.034C580.709 479.023 580.728 479.023 580.737 479.012C581.196 478.754 581.638 478.475 582.088 478.206L582.305 478.077C582.665 477.851 583.026 477.626 583.386 477.389C584.287 476.798 585.17 476.174 586.045 475.508C586.288 475.336 586.522 475.153 586.766 474.96C587.559 474.336 588.343 473.67 589.1 472.992C589.235 472.874 589.379 472.756 589.514 472.627C597.957 464.982 604.154 454.345 607.217 442.241C610.28 430.136 610.052 417.186 606.565 405.246ZM587.856 470.015C587.559 470.294 587.252 470.563 586.946 470.81C586.649 471.079 586.351 471.337 586.045 471.573C585.783 471.799 585.522 472.014 585.251 472.218C585.026 472.401 584.801 472.573 584.576 472.745C583.828 473.304 583.071 473.842 582.305 474.358C582.224 474.411 582.143 474.465 582.061 474.519C581.719 474.745 581.376 474.96 581.034 475.175C580.989 475.207 580.935 475.228 580.89 475.261L580.836 475.293C580.403 475.562 579.962 475.82 579.52 476.067C577.816 477.046 576.061 477.893 574.266 478.604C574.032 478.701 573.797 478.797 573.563 478.883C570.335 480.108 567.005 480.916 563.632 481.291C562.154 481.453 560.658 481.539 559.153 481.539C555.018 481.549 550.899 480.905 546.906 479.625C544.856 478.987 542.848 478.175 540.895 477.196C540.688 477.099 540.48 476.991 540.282 476.895C540.174 476.841 540.075 476.787 539.966 476.723C539.119 476.282 538.282 475.798 537.461 475.293L537.065 475.046C536.065 474.422 535.082 473.756 534.127 473.046C533.776 472.788 533.424 472.519 533.082 472.24C532 471.391 530.946 470.477 529.918 469.52C529.224 468.897 528.558 468.23 527.909 467.542C527.566 467.198 527.233 466.822 526.908 466.467C525.631 465.06 524.421 463.566 523.286 461.995C522.907 461.479 522.537 460.963 522.186 460.426C522.106 460.319 522.031 460.208 521.961 460.092C516.105 451.278 512.583 440.584 511.844 429.373C511.105 418.162 513.181 406.942 517.809 397.144C522.437 387.347 529.407 379.416 537.829 374.362C546.251 369.309 555.744 367.362 565.097 368.77C574.45 370.179 583.24 374.878 590.345 382.27C597.45 389.661 602.549 399.41 604.991 410.272C607.432 421.134 607.106 432.617 604.055 443.258C601.003 453.898 595.364 463.213 587.856 470.015Z" fill="#3F3D56"/>
<path d="M603.738 400.55C604.983 400.011 606.115 399.153 607.052 398.037C607.99 396.92 608.711 395.572 609.164 394.087C609.617 392.602 609.792 391.016 609.676 389.442C609.561 387.868 609.157 386.343 608.494 384.975L629.544 355.903L612.95 353.327L595.503 381.329C593.651 382.81 592.318 385.051 591.758 387.626C591.197 390.202 591.449 392.933 592.464 395.302C593.479 397.671 595.187 399.514 597.265 400.482C599.343 401.449 601.646 401.473 603.738 400.55V400.55Z" fill="#FFB8B8"/>
<path d="M722.393 406.693C723.266 405.505 723.911 404.103 724.281 402.585C724.651 401.068 724.737 399.472 724.534 397.91C724.331 396.348 723.844 394.859 723.106 393.546C722.368 392.234 721.398 391.13 720.264 390.313L726.955 352.736L711.375 360.024L707.41 394.59C706.385 396.953 706.123 399.683 706.674 402.262C707.224 404.84 708.548 407.088 710.395 408.58C712.241 410.072 714.483 410.704 716.694 410.356C718.906 410.008 720.933 408.705 722.393 406.693Z" fill="#FFB8B8"/>
<path d="M646.995 602.529L635.946 602.528L630.691 551.693L646.997 551.694L646.995 602.529Z" fill="#FFB8B8"/>
<path d="M649.813 615.305L614.188 615.303V614.766C614.188 612.593 614.547 610.443 615.244 608.436C615.94 606.429 616.962 604.606 618.249 603.07C619.537 601.534 621.066 600.315 622.748 599.484C624.43 598.653 626.233 598.225 628.054 598.225H628.055L649.813 598.226L649.813 615.305Z" fill="#2F2E41"/>
<path d="M701.067 602.529L690.018 602.528L684.762 551.693L701.069 551.694L701.067 602.529Z" fill="#FFB8B8"/>
<path d="M703.884 615.305L668.26 615.303V614.766C668.26 612.593 668.618 610.443 669.315 608.436C670.012 606.429 671.033 604.606 672.321 603.07C673.609 601.534 675.137 600.315 676.82 599.484C678.502 598.653 680.305 598.225 682.126 598.225H682.127L703.885 598.226L703.884 615.305Z" fill="#2F2E41"/>
<path d="M648.147 575.985L632.507 575.238C631.44 575.184 630.434 574.63 629.706 573.698C628.978 572.766 628.586 571.53 628.615 570.257L633.022 397.849L633.309 397.725C660.72 385.897 683.396 386.791 702.635 400.456L702.85 400.609L705.489 568.527C705.5 569.17 705.402 569.809 705.203 570.406C705.004 571.004 704.707 571.548 704.329 572.007C703.952 572.466 703.501 572.83 703.004 573.079C702.507 573.328 701.974 573.456 701.435 573.456H688.247C687.307 573.454 686.397 573.064 685.672 572.352C684.946 571.64 684.45 570.651 684.267 569.552L666.302 460.536C666.24 460.16 666.067 459.822 665.815 459.583C665.563 459.345 665.247 459.221 664.926 459.236C664.604 459.25 664.297 459.4 664.06 459.66C663.823 459.92 663.672 460.273 663.634 460.654L652.334 571.734C652.21 572.905 651.733 573.983 650.992 574.765C650.251 575.548 649.296 575.983 648.307 575.988C648.254 575.988 648.2 575.987 648.147 575.985Z" fill="#2F2E41"/>
<path d="M663.362 246.652C675.586 246.652 685.496 234.831 685.496 220.249C685.496 205.667 675.586 193.846 663.362 193.846C651.137 193.846 641.227 205.667 641.227 220.249C641.227 234.831 651.137 246.652 663.362 246.652Z" fill="#FFB8B8"/>
<path d="M611.218 379.564C610.45 379.202 609.793 378.57 609.334 377.752L605.057 370.118C604.596 369.29 604.359 368.313 604.378 367.319C604.397 366.325 604.672 365.362 605.164 364.56L622.406 336.645L633.208 274.82C633.829 272.912 634.76 271.168 635.947 269.688C637.133 268.209 638.553 267.023 640.124 266.198C641.695 265.373 643.387 264.926 645.104 264.882C646.82 264.838 648.526 265.197 650.126 265.94C651.726 266.683 653.187 267.795 654.426 269.212C655.665 270.629 656.658 272.323 657.348 274.198C658.038 276.073 658.412 278.092 658.447 280.139C658.483 282.187 658.18 284.222 657.555 286.129L652.45 325.476C650.902 337.419 645.771 348.284 638.01 356.05L615.313 378.77C614.876 379.206 614.368 379.528 613.82 379.715C613.272 379.902 612.697 379.949 612.133 379.853C611.82 379.8 611.513 379.703 611.218 379.564Z" fill="#3F3D56"/>
<path d="M721.448 382.365C720.671 382.699 719.828 382.742 719.03 382.49L711.591 380.13C710.786 379.872 710.067 379.326 709.531 378.565C708.995 377.804 708.667 376.864 708.593 375.874L706.073 341.331L679.937 286.41C679.346 284.488 679.078 282.445 679.149 280.398C679.22 278.352 679.628 276.343 680.351 274.485C681.073 272.627 682.096 270.958 683.36 269.571C684.624 268.185 686.104 267.11 687.717 266.407C689.329 265.704 691.042 265.387 692.757 265.474C694.473 265.561 696.157 266.05 697.713 266.914C699.27 267.778 700.668 269 701.829 270.509C702.99 272.018 703.889 273.785 704.477 275.709L722.439 309.268C727.892 319.452 730.058 331.653 728.534 343.599L724.082 378.542C723.996 379.213 723.792 379.856 723.484 380.428C723.177 381 722.771 381.488 722.295 381.861C722.03 382.068 721.746 382.237 721.448 382.365Z" fill="#3F3D56"/>
<path d="M639.151 267.138C642.953 262.165 647.643 258.273 652.874 255.75C658.105 253.227 663.744 252.138 669.375 252.561C669.745 252.589 670.114 252.62 670.481 252.654H670.481C675.818 253.157 681.004 255.014 685.691 258.1C690.378 261.186 694.459 265.43 697.661 270.549C700.916 275.739 703.205 281.698 704.374 288.028C705.544 294.358 705.567 300.913 704.442 307.254C700.15 331.489 701.237 356.641 707.593 380.221L713.531 402.215C713.722 402.92 713.774 403.667 713.684 404.4C713.594 405.132 713.364 405.83 713.012 406.44C712.66 407.05 712.195 407.556 711.654 407.917C711.112 408.279 710.508 408.488 709.889 408.527L679.532 410.474L671.763 394.468V410.972L634.868 413.339C634.794 413.344 634.721 413.346 634.649 413.346C634.089 413.346 633.535 413.207 633.022 412.939C632.509 412.671 632.049 412.279 631.669 411.788C631.289 411.297 630.999 410.718 630.816 410.087C630.634 409.455 630.563 408.786 630.608 408.12L634.778 346.434L629.547 304.539C628.7 297.844 629.124 291.009 630.786 284.536C632.448 278.063 635.307 272.118 639.151 267.138Z" fill="#3F3D56"/>
<path d="M678.745 245.455C676.695 246.861 668.595 247.794 668.018 245.059L668.006 244.999C667.604 242.995 667.938 240.902 668.053 238.847C668.168 236.791 668 234.532 666.826 233.021C664.638 230.203 660.745 231.697 657.581 230.984C655.728 230.491 654.089 229.209 652.971 227.378C651.853 225.547 651.332 223.293 651.507 221.037C651.552 220.61 651.622 220.182 651.702 219.755C651.9 218.671 651.884 217.548 651.657 216.473C651.43 215.398 650.997 214.401 650.392 213.559C649.787 212.717 649.027 212.054 648.171 211.622C647.315 211.189 646.387 211 645.459 211.067C642.262 211.285 638.81 212.441 636.165 209.616C634.119 207.431 633.62 201.744 634.519 198.649C636.029 193.448 645.706 190.725 649.931 189.228C655.156 187.427 660.652 187.038 666.02 188.089C671.387 189.139 676.49 191.603 680.959 195.302C683.628 197.545 686.12 200.365 687.257 204.015C688.395 207.666 687.846 212.272 685.281 214.682C687.269 217.192 688.669 220.282 689.341 223.642C690.013 227.002 689.932 230.513 689.108 233.824C687.841 238.693 681.795 243.361 678.745 245.455Z" fill="#2F2E41"/>
<path d="M744.099 617H552.144C551.905 617 551.676 616.887 551.507 616.685C551.338 616.484 551.243 616.21 551.243 615.925C551.243 615.64 551.338 615.367 551.507 615.165C551.676 614.963 551.905 614.85 552.144 614.85H744.099C744.338 614.85 744.567 614.963 744.736 615.165C744.905 615.367 745 615.64 745 615.925C745 616.21 744.905 616.484 744.736 616.685C744.567 616.887 744.338 617 744.099 617Z" fill="#CCCCCC"/>
</svg>
