<svg width="50" height="47" viewBox="0 0 50 47" fill="none" xmlns="http://www.w3.org/2000/svg">
<path d="M49.32 40.6345L39.583 31.4833C39.1435 31.0702 38.5477 30.8407 37.9227 30.8407H36.3308C39.0263 27.6006 40.628 23.5252 40.628 19.0919C40.628 8.54545 31.5355 0 20.314 0C9.09246 0 0 8.54545 0 19.0919C0 29.6383 9.09246 38.1838 20.314 38.1838C25.0311 38.1838 29.3674 36.6785 32.8149 34.1451V35.6412C32.8149 36.2287 33.0591 36.7886 33.4985 37.2016L43.2356 46.3529C44.1536 47.2157 45.6381 47.2157 46.5464 46.3529L49.3102 43.7553C50.2283 42.8925 50.2283 41.4973 49.32 40.6345ZM20.314 30.8407C13.4092 30.8407 7.81307 25.5905 7.81307 19.0919C7.81307 12.6025 13.3994 7.34303 20.314 7.34303C27.2188 7.34303 32.8149 12.5933 32.8149 19.0919C32.8149 25.5813 27.2286 30.8407 20.314 30.8407Z" fill="#FFFDFD"/>
</svg>
